<?xml version="1.0" encoding="utf-8" standalone="no"?>
<!DOCTYPE svg PUBLIC "-//W3C//DTD SVG 1.1//EN"
  "http://www.w3.org/Graphics/SVG/1.1/DTD/svg11.dtd">
<!-- Created with matplotlib (https://matplotlib.org/) -->
<svg height="266pt" version="1.1" viewBox="0 0 382 266" width="382pt" xmlns="http://www.w3.org/2000/svg" xmlns:xlink="http://www.w3.org/1999/xlink">
 <defs>
  <style type="text/css">
*{stroke-linecap:butt;stroke-linejoin:round;}
  </style>
 </defs>
 <g id="figure_1">
  <g id="patch_1">
   <path d="M 0 266 
L 382 266 
L 382 0 
L 0 0 
z
" style="fill:#ffffff;"/>
  </g>
  <g id="axes_1">
   <g id="patch_2">
    <path d="M 78.557649 107.262422 
L 169.281165 107.262422 
L 169.281165 16.538906 
L 78.557649 16.538906 
z
" style="fill:#eaeaf2;"/>
   </g>
   <g id="matplotlib.axis_1">
    <g id="xtick_1">
     <g id="line2d_1">
      <path clip-path="url(#p3fc8197e6b)" d="M 78.557649 107.262422 
L 78.557649 16.538906 
" style="fill:none;stroke:#ffffff;stroke-linecap:round;"/>
     </g>
     <g id="line2d_2"/>
    </g>
    <g id="xtick_2">
     <g id="line2d_3">
      <path clip-path="url(#p3fc8197e6b)" d="M 123.919407 107.262422 
L 123.919407 16.538906 
" style="fill:none;stroke:#ffffff;stroke-linecap:round;"/>
     </g>
     <g id="line2d_4"/>
    </g>
    <g id="xtick_3">
     <g id="line2d_5">
      <path clip-path="url(#p3fc8197e6b)" d="M 169.281165 107.262422 
L 169.281165 16.538906 
" style="fill:none;stroke:#ffffff;stroke-linecap:round;"/>
     </g>
     <g id="line2d_6"/>
    </g>
   </g>
   <g id="matplotlib.axis_2">
    <g id="ytick_1">
     <g id="line2d_7">
      <path clip-path="url(#p3fc8197e6b)" d="M 78.557649 107.262422 
L 169.281165 107.262422 
" style="fill:none;stroke:#ffffff;stroke-linecap:round;"/>
     </g>
     <g id="line2d_8"/>
     <g id="text_1">
      <!-- 0.0 -->
      <defs>
       <path d="M 4.15625 35.296875 
Q 4.15625 48 6.765625 55.734375 
Q 9.375 63.484375 14.515625 67.671875 
Q 19.671875 71.875 27.484375 71.875 
Q 33.25 71.875 37.59375 69.546875 
Q 41.9375 67.234375 44.765625 62.859375 
Q 47.609375 58.5 49.21875 52.21875 
Q 50.828125 45.953125 50.828125 35.296875 
Q 50.828125 22.703125 48.234375 14.96875 
Q 45.65625 7.234375 40.5 3 
Q 35.359375 -1.21875 27.484375 -1.21875 
Q 17.140625 -1.21875 11.234375 6.203125 
Q 4.15625 15.140625 4.15625 35.296875 
z
M 13.1875 35.296875 
Q 13.1875 17.671875 17.3125 11.828125 
Q 21.4375 6 27.484375 6 
Q 33.546875 6 37.671875 11.859375 
Q 41.796875 17.71875 41.796875 35.296875 
Q 41.796875 52.984375 37.671875 58.78125 
Q 33.546875 64.59375 27.390625 64.59375 
Q 21.34375 64.59375 17.71875 59.46875 
Q 13.1875 52.9375 13.1875 35.296875 
z
" id="ArialMT-48"/>
       <path d="M 9.078125 0 
L 9.078125 10.015625 
L 19.09375 10.015625 
L 19.09375 0 
z
" id="ArialMT-46"/>
      </defs>
      <g style="fill:#262626;" transform="translate(57.657649 110.841328)scale(0.1 -0.1)">
       <use xlink:href="#ArialMT-48"/>
       <use x="55.615234" xlink:href="#ArialMT-46"/>
       <use x="83.398438" xlink:href="#ArialMT-48"/>
      </g>
     </g>
    </g>
    <g id="ytick_2">
     <g id="line2d_9">
      <path clip-path="url(#p3fc8197e6b)" d="M 78.557649 84.581543 
L 169.281165 84.581543 
" style="fill:none;stroke:#ffffff;stroke-linecap:round;"/>
     </g>
     <g id="line2d_10"/>
     <g id="text_2">
      <!-- 2.5 -->
      <defs>
       <path d="M 50.34375 8.453125 
L 50.34375 0 
L 3.03125 0 
Q 2.9375 3.171875 4.046875 6.109375 
Q 5.859375 10.9375 9.828125 15.625 
Q 13.8125 20.3125 21.34375 26.46875 
Q 33.015625 36.03125 37.109375 41.625 
Q 41.21875 47.21875 41.21875 52.203125 
Q 41.21875 57.421875 37.46875 61 
Q 33.734375 64.59375 27.734375 64.59375 
Q 21.390625 64.59375 17.578125 60.78125 
Q 13.765625 56.984375 13.71875 50.25 
L 4.6875 51.171875 
Q 5.609375 61.28125 11.65625 66.578125 
Q 17.71875 71.875 27.9375 71.875 
Q 38.234375 71.875 44.234375 66.15625 
Q 50.25 60.453125 50.25 52 
Q 50.25 47.703125 48.484375 43.546875 
Q 46.734375 39.40625 42.65625 34.8125 
Q 38.578125 30.21875 29.109375 22.21875 
Q 21.1875 15.578125 18.9375 13.203125 
Q 16.703125 10.84375 15.234375 8.453125 
z
" id="ArialMT-50"/>
       <path d="M 4.15625 18.75 
L 13.375 19.53125 
Q 14.40625 12.796875 18.140625 9.390625 
Q 21.875 6 27.15625 6 
Q 33.5 6 37.890625 10.78125 
Q 42.28125 15.578125 42.28125 23.484375 
Q 42.28125 31 38.0625 35.34375 
Q 33.84375 39.703125 27 39.703125 
Q 22.75 39.703125 19.328125 37.765625 
Q 15.921875 35.84375 13.96875 32.765625 
L 5.71875 33.84375 
L 12.640625 70.609375 
L 48.25 70.609375 
L 48.25 62.203125 
L 19.671875 62.203125 
L 15.828125 42.96875 
Q 22.265625 47.46875 29.34375 47.46875 
Q 38.71875 47.46875 45.15625 40.96875 
Q 51.609375 34.46875 51.609375 24.265625 
Q 51.609375 14.546875 45.953125 7.46875 
Q 39.0625 -1.21875 27.15625 -1.21875 
Q 17.390625 -1.21875 11.203125 4.25 
Q 5.03125 9.71875 4.15625 18.75 
z
" id="ArialMT-53"/>
      </defs>
      <g style="fill:#262626;" transform="translate(57.657649 88.160449)scale(0.1 -0.1)">
       <use xlink:href="#ArialMT-50"/>
       <use x="55.615234" xlink:href="#ArialMT-46"/>
       <use x="83.398438" xlink:href="#ArialMT-53"/>
      </g>
     </g>
    </g>
    <g id="ytick_3">
     <g id="line2d_11">
      <path clip-path="url(#p3fc8197e6b)" d="M 78.557649 61.900664 
L 169.281165 61.900664 
" style="fill:none;stroke:#ffffff;stroke-linecap:round;"/>
     </g>
     <g id="line2d_12"/>
     <g id="text_3">
      <!-- 5.0 -->
      <g style="fill:#262626;" transform="translate(57.657649 65.47957)scale(0.1 -0.1)">
       <use xlink:href="#ArialMT-53"/>
       <use x="55.615234" xlink:href="#ArialMT-46"/>
       <use x="83.398438" xlink:href="#ArialMT-48"/>
      </g>
     </g>
    </g>
    <g id="ytick_4">
     <g id="line2d_13">
      <path clip-path="url(#p3fc8197e6b)" d="M 78.557649 39.219785 
L 169.281165 39.219785 
" style="fill:none;stroke:#ffffff;stroke-linecap:round;"/>
     </g>
     <g id="line2d_14"/>
     <g id="text_4">
      <!-- 7.5 -->
      <defs>
       <path d="M 4.734375 62.203125 
L 4.734375 70.65625 
L 51.078125 70.65625 
L 51.078125 63.8125 
Q 44.234375 56.546875 37.515625 44.484375 
Q 30.8125 32.421875 27.15625 19.671875 
Q 24.515625 10.6875 23.78125 0 
L 14.75 0 
Q 14.890625 8.453125 18.0625 20.40625 
Q 21.234375 32.375 27.171875 43.484375 
Q 33.109375 54.59375 39.796875 62.203125 
z
" id="ArialMT-55"/>
      </defs>
      <g style="fill:#262626;" transform="translate(57.657649 42.798691)scale(0.1 -0.1)">
       <use xlink:href="#ArialMT-55"/>
       <use x="55.615234" xlink:href="#ArialMT-46"/>
       <use x="83.398438" xlink:href="#ArialMT-53"/>
      </g>
     </g>
    </g>
    <g id="ytick_5">
     <g id="line2d_15">
      <path clip-path="url(#p3fc8197e6b)" d="M 78.557649 16.538906 
L 169.281165 16.538906 
" style="fill:none;stroke:#ffffff;stroke-linecap:round;"/>
     </g>
     <g id="line2d_16"/>
     <g id="text_5">
      <!-- 10.0 -->
      <defs>
       <path d="M 37.25 0 
L 28.46875 0 
L 28.46875 56 
Q 25.296875 52.984375 20.140625 49.953125 
Q 14.984375 46.921875 10.890625 45.40625 
L 10.890625 53.90625 
Q 18.265625 57.375 23.78125 62.296875 
Q 29.296875 67.234375 31.59375 71.875 
L 37.25 71.875 
z
" id="ArialMT-49"/>
      </defs>
      <g style="fill:#262626;" transform="translate(52.096712 20.117812)scale(0.1 -0.1)">
       <use xlink:href="#ArialMT-49"/>
       <use x="55.615234" xlink:href="#ArialMT-48"/>
       <use x="111.230469" xlink:href="#ArialMT-46"/>
       <use x="139.013672" xlink:href="#ArialMT-48"/>
      </g>
     </g>
    </g>
    <g id="text_6">
     <!-- y -->
     <defs>
      <path d="M 6.203125 -19.96875 
L 5.21875 -11.71875 
Q 8.109375 -12.5 10.25 -12.5 
Q 13.1875 -12.5 14.9375 -11.515625 
Q 16.703125 -10.546875 17.828125 -8.796875 
Q 18.65625 -7.46875 20.515625 -2.25 
Q 20.75 -1.515625 21.296875 -0.09375 
L 1.609375 51.859375 
L 11.078125 51.859375 
L 21.875 21.828125 
Q 23.96875 16.109375 25.640625 9.8125 
Q 27.15625 15.875 29.25 21.625 
L 40.328125 51.859375 
L 49.125 51.859375 
L 29.390625 -0.875 
Q 26.21875 -9.421875 24.46875 -12.640625 
Q 22.125 -17 19.09375 -19.015625 
Q 16.0625 -21.046875 11.859375 -21.046875 
Q 9.328125 -21.046875 6.203125 -19.96875 
z
" id="ArialMT-121"/>
     </defs>
     <g style="fill:#262626;" transform="translate(45.150149 65.400664)rotate(-90)scale(0.14 -0.14)">
      <use xlink:href="#ArialMT-121"/>
     </g>
    </g>
   </g>
   <g id="line2d_17">
    <defs>
     <path d="M 0 1.75 
C 0.464105 1.75 0.909265 1.565609 1.237437 1.237437 
C 1.565609 0.909265 1.75 0.464105 1.75 0 
C 1.75 -0.464105 1.565609 -0.909265 1.237437 -1.237437 
C 0.909265 -1.565609 0.464105 -1.75 0 -1.75 
C -0.464105 -1.75 -0.909265 -1.565609 -1.237437 -1.237437 
C -1.565609 -0.909265 -1.75 -0.464105 -1.75 0 
C -1.75 0.464105 -1.565609 0.909265 -1.237437 1.237437 
C -0.909265 1.565609 -0.464105 1.75 0 1.75 
z
" id="m7b77137a3b"/>
    </defs>
    <g clip-path="url(#p3fc8197e6b)">
     <use style="fill:#4c72b0;" x="127.947116" xlink:href="#m7b77137a3b" y="59.177719"/>
     <use style="fill:#4c72b0;" x="122.9195" xlink:href="#m7b77137a3b" y="53.293879"/>
     <use style="fill:#4c72b0;" x="136.581622" xlink:href="#m7b77137a3b" y="54.069156"/>
     <use style="fill:#4c72b0;" x="108.654971" xlink:href="#m7b77137a3b" y="72.108813"/>
     <use style="fill:#4c72b0;" x="114.514144" xlink:href="#m7b77137a3b" y="60.387402"/>
     <use style="fill:#4c72b0;" x="122.284851" xlink:href="#m7b77137a3b" y="60.866931"/>
     <use style="fill:#4c72b0;" x="116.0726" xlink:href="#m7b77137a3b" y="60.590441"/>
     <use style="fill:#4c72b0;" x="130.261015" xlink:href="#m7b77137a3b" y="56.941986"/>
     <use style="fill:#4c72b0;" x="123.801708" xlink:href="#m7b77137a3b" y="56.914148"/>
     <use style="fill:#4c72b0;" x="131.619295" xlink:href="#m7b77137a3b" y="67.389299"/>
     <use style="fill:#4c72b0;" x="121.725359" xlink:href="#m7b77137a3b" y="62.967722"/>
     <use style="fill:#4c72b0;" x="117.161004" xlink:href="#m7b77137a3b" y="55.494788"/>
     <use style="fill:#4c72b0;" x="115.816183" xlink:href="#m7b77137a3b" y="65.702636"/>
     <use style="fill:#4c72b0;" x="116.914826" xlink:href="#m7b77137a3b" y="72.126171"/>
     <use style="fill:#4c72b0;" x="124.489016" xlink:href="#m7b77137a3b" y="47.145103"/>
     <use style="fill:#4c72b0;" x="125.422569" xlink:href="#m7b77137a3b" y="63.711739"/>
     <use style="fill:#4c72b0;" x="130.86215" xlink:href="#m7b77137a3b" y="59.441341"/>
     <use style="fill:#4c72b0;" x="130.265667" xlink:href="#m7b77137a3b" y="53.390712"/>
     <use style="fill:#4c72b0;" x="134.695051" xlink:href="#m7b77137a3b" y="56.850224"/>
     <use style="fill:#4c72b0;" x="126.118935" xlink:href="#m7b77137a3b" y="64.931304"/>
     <use style="fill:#4c72b0;" x="113.048471" xlink:href="#m7b77137a3b" y="62.723364"/>
     <use style="fill:#4c72b0;" x="125.742397" xlink:href="#m7b77137a3b" y="64.577354"/>
     <use style="fill:#4c72b0;" x="119.467693" xlink:href="#m7b77137a3b" y="63.593445"/>
     <use style="fill:#4c72b0;" x="120.553658" xlink:href="#m7b77137a3b" y="58.6348"/>
     <use style="fill:#4c72b0;" x="121.305514" xlink:href="#m7b77137a3b" y="57.312211"/>
     <use style="fill:#4c72b0;" x="132.239105" xlink:href="#m7b77137a3b" y="57.012062"/>
     <use style="fill:#4c72b0;" x="129.482492" xlink:href="#m7b77137a3b" y="67.797934"/>
     <use style="fill:#4c72b0;" x="137.488883" xlink:href="#m7b77137a3b" y="69.359751"/>
     <use style="fill:#4c72b0;" x="112.823038" xlink:href="#m7b77137a3b" y="66.448115"/>
     <use style="fill:#4c72b0;" x="114.349748" xlink:href="#m7b77137a3b" y="76.917535"/>
     <use style="fill:#4c72b0;" x="121.340274" xlink:href="#m7b77137a3b" y="65.353661"/>
     <use style="fill:#4c72b0;" x="117.655367" xlink:href="#m7b77137a3b" y="69.992611"/>
     <use style="fill:#4c72b0;" x="119.955762" xlink:href="#m7b77137a3b" y="76.690555"/>
     <use style="fill:#4c72b0;" x="121.246571" xlink:href="#m7b77137a3b" y="66.362629"/>
     <use style="fill:#4c72b0;" x="130.204735" xlink:href="#m7b77137a3b" y="55.829487"/>
     <use style="fill:#4c72b0;" x="132.942091" xlink:href="#m7b77137a3b" y="50.772735"/>
     <use style="fill:#4c72b0;" x="126.224579" xlink:href="#m7b77137a3b" y="70.115656"/>
     <use style="fill:#4c72b0;" x="133.294114" xlink:href="#m7b77137a3b" y="50.741097"/>
     <use style="fill:#4c72b0;" x="119.921186" xlink:href="#m7b77137a3b" y="66.638176"/>
     <use style="fill:#4c72b0;" x="120.298186" xlink:href="#m7b77137a3b" y="67.572379"/>
     <use style="fill:#4c72b0;" x="119.928616" xlink:href="#m7b77137a3b" y="56.884604"/>
     <use style="fill:#4c72b0;" x="124.323767" xlink:href="#m7b77137a3b" y="52.980491"/>
     <use style="fill:#4c72b0;" x="116.925969" xlink:href="#m7b77137a3b" y="62.704618"/>
     <use style="fill:#4c72b0;" x="126.037542" xlink:href="#m7b77137a3b" y="58.374306"/>
     <use style="fill:#4c72b0;" x="129.045529" xlink:href="#m7b77137a3b" y="50.447429"/>
     <use style="fill:#4c72b0;" x="125.117368" xlink:href="#m7b77137a3b" y="78.315879"/>
     <use style="fill:#4c72b0;" x="133.187506" xlink:href="#m7b77137a3b" y="65.404424"/>
     <use style="fill:#4c72b0;" x="140.006549" xlink:href="#m7b77137a3b" y="45.976165"/>
     <use style="fill:#4c72b0;" x="136.528157" xlink:href="#m7b77137a3b" y="55.70146"/>
     <use style="fill:#4c72b0;" x="110.168541" xlink:href="#m7b77137a3b" y="57.864701"/>
    </g>
   </g>
   <g id="patch_3">
    <path d="M 78.557649 107.262422 
L 78.557649 16.538906 
" style="fill:none;"/>
   </g>
   <g id="patch_4">
    <path d="M 169.281165 107.262422 
L 169.281165 16.538906 
" style="fill:none;"/>
   </g>
   <g id="patch_5">
    <path d="M 78.557649 107.262422 
L 169.281165 107.262422 
" style="fill:none;"/>
   </g>
   <g id="patch_6">
    <path d="M 78.557649 16.538906 
L 169.281165 16.538906 
" style="fill:none;"/>
   </g>
   <g id="text_7">
    <!-- (a) -->
    <defs>
     <path d="M 23.390625 -21.046875 
Q 16.109375 -11.859375 11.078125 0.4375 
Q 6.0625 12.75 6.0625 25.921875 
Q 6.0625 37.546875 9.8125 48.1875 
Q 14.203125 60.546875 23.390625 72.796875 
L 29.6875 72.796875 
Q 23.78125 62.640625 21.875 58.296875 
Q 18.890625 51.5625 17.1875 44.234375 
Q 15.09375 35.109375 15.09375 25.875 
Q 15.09375 2.390625 29.6875 -21.046875 
z
" id="ArialMT-40"/>
     <path d="M 40.4375 6.390625 
Q 35.546875 2.25 31.03125 0.53125 
Q 26.515625 -1.171875 21.34375 -1.171875 
Q 12.796875 -1.171875 8.203125 3 
Q 3.609375 7.171875 3.609375 13.671875 
Q 3.609375 17.484375 5.34375 20.625 
Q 7.078125 23.78125 9.890625 25.6875 
Q 12.703125 27.59375 16.21875 28.5625 
Q 18.796875 29.25 24.03125 29.890625 
Q 34.671875 31.15625 39.703125 32.90625 
Q 39.75 34.71875 39.75 35.203125 
Q 39.75 40.578125 37.25 42.78125 
Q 33.890625 45.75 27.25 45.75 
Q 21.046875 45.75 18.09375 43.578125 
Q 15.140625 41.40625 13.71875 35.890625 
L 5.125 37.0625 
Q 6.296875 42.578125 8.984375 45.96875 
Q 11.671875 49.359375 16.75 51.1875 
Q 21.828125 53.03125 28.515625 53.03125 
Q 35.15625 53.03125 39.296875 51.46875 
Q 43.453125 49.90625 45.40625 47.53125 
Q 47.359375 45.171875 48.140625 41.546875 
Q 48.578125 39.3125 48.578125 33.453125 
L 48.578125 21.734375 
Q 48.578125 9.46875 49.140625 6.21875 
Q 49.703125 2.984375 51.375 0 
L 42.1875 0 
Q 40.828125 2.734375 40.4375 6.390625 
z
M 39.703125 26.03125 
Q 34.90625 24.078125 25.34375 22.703125 
Q 19.921875 21.921875 17.671875 20.9375 
Q 15.4375 19.96875 14.203125 18.09375 
Q 12.984375 16.21875 12.984375 13.921875 
Q 12.984375 10.40625 15.640625 8.0625 
Q 18.3125 5.71875 23.4375 5.71875 
Q 28.515625 5.71875 32.46875 7.9375 
Q 36.421875 10.15625 38.28125 14.015625 
Q 39.703125 17 39.703125 22.796875 
z
" id="ArialMT-97"/>
     <path d="M 12.359375 -21.046875 
L 6.0625 -21.046875 
Q 20.65625 2.390625 20.65625 25.875 
Q 20.65625 35.0625 18.5625 44.09375 
Q 16.890625 51.421875 13.921875 58.15625 
Q 12.015625 62.546875 6.0625 72.796875 
L 12.359375 72.796875 
Q 21.53125 60.546875 25.921875 48.1875 
Q 29.6875 37.546875 29.6875 25.921875 
Q 29.6875 12.75 24.625 0.4375 
Q 19.578125 -11.859375 12.359375 -21.046875 
z
" id="ArialMT-41"/>
    </defs>
    <g style="fill:#262626;" transform="translate(80.825737 30.147434)scale(0.16 -0.16)">
     <use xlink:href="#ArialMT-40"/>
     <use x="33.300781" xlink:href="#ArialMT-97"/>
     <use x="88.916016" xlink:href="#ArialMT-41"/>
    </g>
   </g>
  </g>
  <g id="axes_2">
   <g id="patch_7">
    <path d="M 235.249119 107.262422 
L 325.972635 107.262422 
L 325.972635 16.538906 
L 235.249119 16.538906 
z
" style="fill:#eaeaf2;"/>
   </g>
   <g id="matplotlib.axis_3">
    <g id="xtick_4">
     <g id="line2d_18">
      <path clip-path="url(#p4d4f606b7c)" d="M 235.249119 107.262422 
L 235.249119 16.538906 
" style="fill:none;stroke:#ffffff;stroke-linecap:round;"/>
     </g>
     <g id="line2d_19"/>
    </g>
    <g id="xtick_5">
     <g id="line2d_20">
      <path clip-path="url(#p4d4f606b7c)" d="M 280.610877 107.262422 
L 280.610877 16.538906 
" style="fill:none;stroke:#ffffff;stroke-linecap:round;"/>
     </g>
     <g id="line2d_21"/>
    </g>
    <g id="xtick_6">
     <g id="line2d_22">
      <path clip-path="url(#p4d4f606b7c)" d="M 325.972635 107.262422 
L 325.972635 16.538906 
" style="fill:none;stroke:#ffffff;stroke-linecap:round;"/>
     </g>
     <g id="line2d_23"/>
    </g>
   </g>
   <g id="matplotlib.axis_4">
    <g id="ytick_6">
     <g id="line2d_24">
      <path clip-path="url(#p4d4f606b7c)" d="M 235.249119 107.262422 
L 325.972635 107.262422 
" style="fill:none;stroke:#ffffff;stroke-linecap:round;"/>
     </g>
     <g id="line2d_25"/>
    </g>
    <g id="ytick_7">
     <g id="line2d_26">
      <path clip-path="url(#p4d4f606b7c)" d="M 235.249119 84.581543 
L 325.972635 84.581543 
" style="fill:none;stroke:#ffffff;stroke-linecap:round;"/>
     </g>
     <g id="line2d_27"/>
    </g>
    <g id="ytick_8">
     <g id="line2d_28">
      <path clip-path="url(#p4d4f606b7c)" d="M 235.249119 61.900664 
L 325.972635 61.900664 
" style="fill:none;stroke:#ffffff;stroke-linecap:round;"/>
     </g>
     <g id="line2d_29"/>
    </g>
    <g id="ytick_9">
     <g id="line2d_30">
      <path clip-path="url(#p4d4f606b7c)" d="M 235.249119 39.219785 
L 325.972635 39.219785 
" style="fill:none;stroke:#ffffff;stroke-linecap:round;"/>
     </g>
     <g id="line2d_31"/>
    </g>
    <g id="ytick_10">
     <g id="line2d_32">
      <path clip-path="url(#p4d4f606b7c)" d="M 235.249119 16.538906 
L 325.972635 16.538906 
" style="fill:none;stroke:#ffffff;stroke-linecap:round;"/>
     </g>
     <g id="line2d_33"/>
    </g>
   </g>
   <g id="line2d_34">
    <g clip-path="url(#p4d4f606b7c)">
     <use style="fill:#4c72b0;" x="277.653576" xlink:href="#m7b77137a3b" y="64.386172"/>
     <use style="fill:#4c72b0;" x="273.175892" xlink:href="#m7b77137a3b" y="65.636825"/>
     <use style="fill:#4c72b0;" x="279.244163" xlink:href="#m7b77137a3b" y="61.526973"/>
     <use style="fill:#4c72b0;" x="272.200634" xlink:href="#m7b77137a3b" y="59.208287"/>
     <use style="fill:#4c72b0;" x="280.61792" xlink:href="#m7b77137a3b" y="62.781852"/>
     <use style="fill:#4c72b0;" x="286.04639" xlink:href="#m7b77137a3b" y="58.85774"/>
     <use style="fill:#4c72b0;" x="289.545706" xlink:href="#m7b77137a3b" y="74.547533"/>
     <use style="fill:#4c72b0;" x="275.196394" xlink:href="#m7b77137a3b" y="61.316182"/>
     <use style="fill:#4c72b0;" x="279.151197" xlink:href="#m7b77137a3b" y="76.074976"/>
     <use style="fill:#4c72b0;" x="288.559418" xlink:href="#m7b77137a3b" y="75.802505"/>
     <use style="fill:#4c72b0;" x="283.73459" xlink:href="#m7b77137a3b" y="66.387916"/>
     <use style="fill:#4c72b0;" x="286.84602" xlink:href="#m7b77137a3b" y="65.757536"/>
     <use style="fill:#4c72b0;" x="274.49391" xlink:href="#m7b77137a3b" y="53.833543"/>
     <use style="fill:#4c72b0;" x="272.759591" xlink:href="#m7b77137a3b" y="61.866767"/>
     <use style="fill:#4c72b0;" x="284.787479" xlink:href="#m7b77137a3b" y="68.338655"/>
     <use style="fill:#4c72b0;" x="258.110461" xlink:href="#m7b77137a3b" y="37.105556"/>
     <use style="fill:#4c72b0;" x="280.083341" xlink:href="#m7b77137a3b" y="59.337485"/>
     <use style="fill:#4c72b0;" x="281.065245" xlink:href="#m7b77137a3b" y="64.366648"/>
     <use style="fill:#4c72b0;" x="269.95546" xlink:href="#m7b77137a3b" y="50.132706"/>
     <use style="fill:#4c72b0;" x="280.105718" xlink:href="#m7b77137a3b" y="60.830568"/>
     <use style="fill:#4c72b0;" x="277.302582" xlink:href="#m7b77137a3b" y="61.026892"/>
     <use style="fill:#4c72b0;" x="289.586145" xlink:href="#m7b77137a3b" y="65.175973"/>
     <use style="fill:#4c72b0;" x="277.173918" xlink:href="#m7b77137a3b" y="53.53427"/>
     <use style="fill:#4c72b0;" x="277.288149" xlink:href="#m7b77137a3b" y="56.91857"/>
     <use style="fill:#4c72b0;" x="291.973938" xlink:href="#m7b77137a3b" y="77.368412"/>
     <use style="fill:#4c72b0;" x="284.196917" xlink:href="#m7b77137a3b" y="64.001216"/>
     <use style="fill:#4c72b0;" x="290.822581" xlink:href="#m7b77137a3b" y="61.732932"/>
     <use style="fill:#4c72b0;" x="292.509847" xlink:href="#m7b77137a3b" y="70.874321"/>
     <use style="fill:#4c72b0;" x="283.132004" xlink:href="#m7b77137a3b" y="71.215767"/>
     <use style="fill:#4c72b0;" x="285.120146" xlink:href="#m7b77137a3b" y="67.605671"/>
     <use style="fill:#4c72b0;" x="285.438435" xlink:href="#m7b77137a3b" y="61.568375"/>
     <use style="fill:#4c72b0;" x="279.057787" xlink:href="#m7b77137a3b" y="60.592228"/>
     <use style="fill:#4c72b0;" x="272.535385" xlink:href="#m7b77137a3b" y="57.314166"/>
     <use style="fill:#4c72b0;" x="273.433592" xlink:href="#m7b77137a3b" y="43.372784"/>
     <use style="fill:#4c72b0;" x="279.408919" xlink:href="#m7b77137a3b" y="69.293305"/>
     <use style="fill:#4c72b0;" x="278.986752" xlink:href="#m7b77137a3b" y="50.475289"/>
     <use style="fill:#4c72b0;" x="277.904271" xlink:href="#m7b77137a3b" y="68.142417"/>
     <use style="fill:#4c72b0;" x="279.207195" xlink:href="#m7b77137a3b" y="62.166151"/>
     <use style="fill:#4c72b0;" x="280.396908" xlink:href="#m7b77137a3b" y="55.994572"/>
     <use style="fill:#4c72b0;" x="289.037069" xlink:href="#m7b77137a3b" y="71.397062"/>
     <use style="fill:#4c72b0;" x="291.639148" xlink:href="#m7b77137a3b" y="74.342627"/>
     <use style="fill:#4c72b0;" x="279.483024" xlink:href="#m7b77137a3b" y="55.512356"/>
     <use style="fill:#4c72b0;" x="288.286454" xlink:href="#m7b77137a3b" y="58.402696"/>
     <use style="fill:#4c72b0;" x="277.134615" xlink:href="#m7b77137a3b" y="53.323628"/>
     <use style="fill:#4c72b0;" x="279.692383" xlink:href="#m7b77137a3b" y="68.206558"/>
     <use style="fill:#4c72b0;" x="271.705393" xlink:href="#m7b77137a3b" y="46.57648"/>
     <use style="fill:#4c72b0;" x="301.315474" xlink:href="#m7b77137a3b" y="70.36419"/>
     <use style="fill:#4c72b0;" x="288.112197" xlink:href="#m7b77137a3b" y="68.880287"/>
     <use style="fill:#4c72b0;" x="272.383539" xlink:href="#m7b77137a3b" y="57.097184"/>
     <use style="fill:#4c72b0;" x="275.903648" xlink:href="#m7b77137a3b" y="66.42082"/>
    </g>
   </g>
   <g id="patch_8">
    <path d="M 235.249119 107.262422 
L 235.249119 16.538906 
" style="fill:none;"/>
   </g>
   <g id="patch_9">
    <path d="M 325.972635 107.262422 
L 325.972635 16.538906 
" style="fill:none;"/>
   </g>
   <g id="patch_10">
    <path d="M 235.249119 107.262422 
L 325.972635 107.262422 
" style="fill:none;"/>
   </g>
   <g id="patch_11">
    <path d="M 235.249119 16.538906 
L 325.972635 16.538906 
" style="fill:none;"/>
   </g>
   <g id="text_8">
    <!-- (b) -->
    <defs>
     <path d="M 14.703125 0 
L 6.546875 0 
L 6.546875 71.578125 
L 15.328125 71.578125 
L 15.328125 46.046875 
Q 20.90625 53.03125 29.546875 53.03125 
Q 34.328125 53.03125 38.59375 51.09375 
Q 42.875 49.171875 45.625 45.671875 
Q 48.390625 42.1875 49.953125 37.25 
Q 51.515625 32.328125 51.515625 26.703125 
Q 51.515625 13.375 44.921875 6.09375 
Q 38.328125 -1.171875 29.109375 -1.171875 
Q 19.921875 -1.171875 14.703125 6.5 
z
M 14.59375 26.3125 
Q 14.59375 17 17.140625 12.84375 
Q 21.296875 6.0625 28.375 6.0625 
Q 34.125 6.0625 38.328125 11.0625 
Q 42.53125 16.0625 42.53125 25.984375 
Q 42.53125 36.140625 38.5 40.96875 
Q 34.46875 45.796875 28.765625 45.796875 
Q 23 45.796875 18.796875 40.796875 
Q 14.59375 35.796875 14.59375 26.3125 
z
" id="ArialMT-98"/>
    </defs>
    <g style="fill:#262626;" transform="translate(237.517207 30.147434)scale(0.16 -0.16)">
     <use xlink:href="#ArialMT-40"/>
     <use x="33.300781" xlink:href="#ArialMT-98"/>
     <use x="88.916016" xlink:href="#ArialMT-41"/>
    </g>
   </g>
  </g>
  <g id="axes_3">
   <g id="patch_12">
    <path d="M 78.557649 220.09125 
L 169.281165 220.09125 
L 169.281165 129.367734 
L 78.557649 129.367734 
z
" style="fill:#eaeaf2;"/>
   </g>
   <g id="matplotlib.axis_5">
    <g id="xtick_7">
     <g id="line2d_35">
      <path clip-path="url(#p30789ed4a4)" d="M 78.557649 220.09125 
L 78.557649 129.367734 
" style="fill:none;stroke:#ffffff;stroke-linecap:round;"/>
     </g>
     <g id="line2d_36"/>
     <g id="text_9">
      <!-- 0 -->
      <g style="fill:#262626;" transform="translate(75.77718 234.249063)scale(0.1 -0.1)">
       <use xlink:href="#ArialMT-48"/>
      </g>
     </g>
    </g>
    <g id="xtick_8">
     <g id="line2d_37">
      <path clip-path="url(#p30789ed4a4)" d="M 123.919407 220.09125 
L 123.919407 129.367734 
" style="fill:none;stroke:#ffffff;stroke-linecap:round;"/>
     </g>
     <g id="line2d_38"/>
     <g id="text_10">
      <!-- 5 -->
      <g style="fill:#262626;" transform="translate(121.138938 234.249063)scale(0.1 -0.1)">
       <use xlink:href="#ArialMT-53"/>
      </g>
     </g>
    </g>
    <g id="xtick_9">
     <g id="line2d_39">
      <path clip-path="url(#p30789ed4a4)" d="M 169.281165 220.09125 
L 169.281165 129.367734 
" style="fill:none;stroke:#ffffff;stroke-linecap:round;"/>
     </g>
     <g id="line2d_40"/>
     <g id="text_11">
      <!-- 10 -->
      <g style="fill:#262626;" transform="translate(163.720227 234.249063)scale(0.1 -0.1)">
       <use xlink:href="#ArialMT-49"/>
       <use x="55.615234" xlink:href="#ArialMT-48"/>
      </g>
     </g>
    </g>
    <g id="text_12">
     <!-- x -->
     <defs>
      <path d="M 0.734375 0 
L 19.671875 26.953125 
L 2.15625 51.859375 
L 13.140625 51.859375 
L 21.09375 39.703125 
Q 23.34375 36.234375 24.703125 33.890625 
Q 26.859375 37.109375 28.65625 39.59375 
L 37.40625 51.859375 
L 47.90625 51.859375 
L 29.984375 27.4375 
L 49.265625 0 
L 38.484375 0 
L 27.828125 16.109375 
L 25 20.453125 
L 11.375 0 
z
" id="ArialMT-120"/>
     </defs>
     <g style="fill:#262626;" transform="translate(120.419407 250.2575)scale(0.14 -0.14)">
      <use xlink:href="#ArialMT-120"/>
     </g>
    </g>
   </g>
   <g id="matplotlib.axis_6">
    <g id="ytick_11">
     <g id="line2d_41">
      <path clip-path="url(#p30789ed4a4)" d="M 78.557649 220.09125 
L 169.281165 220.09125 
" style="fill:none;stroke:#ffffff;stroke-linecap:round;"/>
     </g>
     <g id="line2d_42"/>
     <g id="text_13">
      <!-- 0.0 -->
      <g style="fill:#262626;" transform="translate(57.657649 223.670156)scale(0.1 -0.1)">
       <use xlink:href="#ArialMT-48"/>
       <use x="55.615234" xlink:href="#ArialMT-46"/>
       <use x="83.398438" xlink:href="#ArialMT-48"/>
      </g>
     </g>
    </g>
    <g id="ytick_12">
     <g id="line2d_43">
      <path clip-path="url(#p30789ed4a4)" d="M 78.557649 197.410371 
L 169.281165 197.410371 
" style="fill:none;stroke:#ffffff;stroke-linecap:round;"/>
     </g>
     <g id="line2d_44"/>
     <g id="text_14">
      <!-- 2.5 -->
      <g style="fill:#262626;" transform="translate(57.657649 200.989277)scale(0.1 -0.1)">
       <use xlink:href="#ArialMT-50"/>
       <use x="55.615234" xlink:href="#ArialMT-46"/>
       <use x="83.398438" xlink:href="#ArialMT-53"/>
      </g>
     </g>
    </g>
    <g id="ytick_13">
     <g id="line2d_45">
      <path clip-path="url(#p30789ed4a4)" d="M 78.557649 174.729492 
L 169.281165 174.729492 
" style="fill:none;stroke:#ffffff;stroke-linecap:round;"/>
     </g>
     <g id="line2d_46"/>
     <g id="text_15">
      <!-- 5.0 -->
      <g style="fill:#262626;" transform="translate(57.657649 178.308398)scale(0.1 -0.1)">
       <use xlink:href="#ArialMT-53"/>
       <use x="55.615234" xlink:href="#ArialMT-46"/>
       <use x="83.398438" xlink:href="#ArialMT-48"/>
      </g>
     </g>
    </g>
    <g id="ytick_14">
     <g id="line2d_47">
      <path clip-path="url(#p30789ed4a4)" d="M 78.557649 152.048613 
L 169.281165 152.048613 
" style="fill:none;stroke:#ffffff;stroke-linecap:round;"/>
     </g>
     <g id="line2d_48"/>
     <g id="text_16">
      <!-- 7.5 -->
      <g style="fill:#262626;" transform="translate(57.657649 155.62752)scale(0.1 -0.1)">
       <use xlink:href="#ArialMT-55"/>
       <use x="55.615234" xlink:href="#ArialMT-46"/>
       <use x="83.398438" xlink:href="#ArialMT-53"/>
      </g>
     </g>
    </g>
    <g id="ytick_15">
     <g id="line2d_49">
      <path clip-path="url(#p30789ed4a4)" d="M 78.557649 129.367734 
L 169.281165 129.367734 
" style="fill:none;stroke:#ffffff;stroke-linecap:round;"/>
     </g>
     <g id="line2d_50"/>
     <g id="text_17">
      <!-- 10.0 -->
      <g style="fill:#262626;" transform="translate(52.096712 132.946641)scale(0.1 -0.1)">
       <use xlink:href="#ArialMT-49"/>
       <use x="55.615234" xlink:href="#ArialMT-48"/>
       <use x="111.230469" xlink:href="#ArialMT-46"/>
       <use x="139.013672" xlink:href="#ArialMT-48"/>
      </g>
     </g>
    </g>
    <g id="text_18">
     <!-- y -->
     <g style="fill:#262626;" transform="translate(45.150149 178.229492)rotate(-90)scale(0.14 -0.14)">
      <use xlink:href="#ArialMT-121"/>
     </g>
    </g>
   </g>
   <g id="line2d_51">
    <g clip-path="url(#p30789ed4a4)">
     <use style="fill:#4c72b0;" x="116.912794" xlink:href="#m7b77137a3b" y="182.828091"/>
     <use style="fill:#4c72b0;" x="119.934304" xlink:href="#m7b77137a3b" y="175.300632"/>
     <use style="fill:#4c72b0;" x="119.132364" xlink:href="#m7b77137a3b" y="177.120282"/>
     <use style="fill:#4c72b0;" x="112.310743" xlink:href="#m7b77137a3b" y="181.398741"/>
     <use style="fill:#4c72b0;" x="127.239236" xlink:href="#m7b77137a3b" y="174.898232"/>
     <use style="fill:#4c72b0;" x="120.940589" xlink:href="#m7b77137a3b" y="181.287328"/>
     <use style="fill:#4c72b0;" x="122.888302" xlink:href="#m7b77137a3b" y="174.166136"/>
     <use style="fill:#4c72b0;" x="110.47724" xlink:href="#m7b77137a3b" y="184.487716"/>
     <use style="fill:#4c72b0;" x="124.316704" xlink:href="#m7b77137a3b" y="167.296566"/>
     <use style="fill:#4c72b0;" x="135.992257" xlink:href="#m7b77137a3b" y="161.365451"/>
     <use style="fill:#4c72b0;" x="133.805543" xlink:href="#m7b77137a3b" y="169.080031"/>
     <use style="fill:#4c72b0;" x="127.810829" xlink:href="#m7b77137a3b" y="170.888427"/>
     <use style="fill:#4c72b0;" x="108.849062" xlink:href="#m7b77137a3b" y="188.743791"/>
     <use style="fill:#4c72b0;" x="130.688203" xlink:href="#m7b77137a3b" y="166.94421"/>
     <use style="fill:#4c72b0;" x="129.035862" xlink:href="#m7b77137a3b" y="170.320855"/>
     <use style="fill:#4c72b0;" x="128.203361" xlink:href="#m7b77137a3b" y="171.392709"/>
     <use style="fill:#4c72b0;" x="134.762992" xlink:href="#m7b77137a3b" y="163.954712"/>
     <use style="fill:#4c72b0;" x="146.193221" xlink:href="#m7b77137a3b" y="153.589441"/>
     <use style="fill:#4c72b0;" x="122.094124" xlink:href="#m7b77137a3b" y="181.80019"/>
     <use style="fill:#4c72b0;" x="144.273057" xlink:href="#m7b77137a3b" y="152.389191"/>
     <use style="fill:#4c72b0;" x="113.951141" xlink:href="#m7b77137a3b" y="182.788784"/>
     <use style="fill:#4c72b0;" x="128.678783" xlink:href="#m7b77137a3b" y="170.319817"/>
     <use style="fill:#4c72b0;" x="122.476853" xlink:href="#m7b77137a3b" y="179.457723"/>
     <use style="fill:#4c72b0;" x="123.726682" xlink:href="#m7b77137a3b" y="173.912473"/>
     <use style="fill:#4c72b0;" x="142.799831" xlink:href="#m7b77137a3b" y="156.1922"/>
     <use style="fill:#4c72b0;" x="121.304923" xlink:href="#m7b77137a3b" y="178.576607"/>
     <use style="fill:#4c72b0;" x="126.976535" xlink:href="#m7b77137a3b" y="173.999276"/>
     <use style="fill:#4c72b0;" x="137.340159" xlink:href="#m7b77137a3b" y="163.820586"/>
     <use style="fill:#4c72b0;" x="119.753338" xlink:href="#m7b77137a3b" y="175.80948"/>
     <use style="fill:#4c72b0;" x="119.33082" xlink:href="#m7b77137a3b" y="176.957452"/>
     <use style="fill:#4c72b0;" x="128.944275" xlink:href="#m7b77137a3b" y="172.515365"/>
     <use style="fill:#4c72b0;" x="122.234414" xlink:href="#m7b77137a3b" y="170.804139"/>
     <use style="fill:#4c72b0;" x="127.617189" xlink:href="#m7b77137a3b" y="169.764622"/>
     <use style="fill:#4c72b0;" x="137.517607" xlink:href="#m7b77137a3b" y="165.930843"/>
     <use style="fill:#4c72b0;" x="117.909791" xlink:href="#m7b77137a3b" y="182.077304"/>
     <use style="fill:#4c72b0;" x="118.775042" xlink:href="#m7b77137a3b" y="182.057388"/>
     <use style="fill:#4c72b0;" x="121.99005" xlink:href="#m7b77137a3b" y="177.97128"/>
     <use style="fill:#4c72b0;" x="118.493184" xlink:href="#m7b77137a3b" y="184.326528"/>
     <use style="fill:#4c72b0;" x="137.21602" xlink:href="#m7b77137a3b" y="162.303669"/>
     <use style="fill:#4c72b0;" x="134.061703" xlink:href="#m7b77137a3b" y="162.044846"/>
     <use style="fill:#4c72b0;" x="125.392771" xlink:href="#m7b77137a3b" y="176.179243"/>
     <use style="fill:#4c72b0;" x="119.539424" xlink:href="#m7b77137a3b" y="179.953747"/>
     <use style="fill:#4c72b0;" x="112.905343" xlink:href="#m7b77137a3b" y="185.302998"/>
     <use style="fill:#4c72b0;" x="121.891209" xlink:href="#m7b77137a3b" y="172.480182"/>
     <use style="fill:#4c72b0;" x="122.031688" xlink:href="#m7b77137a3b" y="178.975012"/>
     <use style="fill:#4c72b0;" x="125.384168" xlink:href="#m7b77137a3b" y="178.039005"/>
     <use style="fill:#4c72b0;" x="108.796899" xlink:href="#m7b77137a3b" y="183.338902"/>
     <use style="fill:#4c72b0;" x="125.842463" xlink:href="#m7b77137a3b" y="173.170412"/>
     <use style="fill:#4c72b0;" x="117.251577" xlink:href="#m7b77137a3b" y="181.100388"/>
     <use style="fill:#4c72b0;" x="116.609258" xlink:href="#m7b77137a3b" y="181.479806"/>
    </g>
   </g>
   <g id="patch_13">
    <path d="M 78.557649 220.09125 
L 78.557649 129.367734 
" style="fill:none;"/>
   </g>
   <g id="patch_14">
    <path d="M 169.281165 220.09125 
L 169.281165 129.367734 
" style="fill:none;"/>
   </g>
   <g id="patch_15">
    <path d="M 78.557649 220.09125 
L 169.281165 220.09125 
" style="fill:none;"/>
   </g>
   <g id="patch_16">
    <path d="M 78.557649 129.367734 
L 169.281165 129.367734 
" style="fill:none;"/>
   </g>
   <g id="text_19">
    <!-- (c) -->
    <defs>
     <path d="M 40.4375 19 
L 49.078125 17.875 
Q 47.65625 8.9375 41.8125 3.875 
Q 35.984375 -1.171875 27.484375 -1.171875 
Q 16.84375 -1.171875 10.375 5.78125 
Q 3.90625 12.75 3.90625 25.734375 
Q 3.90625 34.125 6.6875 40.421875 
Q 9.46875 46.734375 15.15625 49.875 
Q 20.84375 53.03125 27.546875 53.03125 
Q 35.984375 53.03125 41.359375 48.75 
Q 46.734375 44.484375 48.25 36.625 
L 39.703125 35.296875 
Q 38.484375 40.53125 35.375 43.15625 
Q 32.28125 45.796875 27.875 45.796875 
Q 21.234375 45.796875 17.078125 41.03125 
Q 12.9375 36.28125 12.9375 25.984375 
Q 12.9375 15.53125 16.9375 10.796875 
Q 20.953125 6.0625 27.390625 6.0625 
Q 32.5625 6.0625 36.03125 9.234375 
Q 39.5 12.40625 40.4375 19 
z
" id="ArialMT-99"/>
    </defs>
    <g style="fill:#262626;" transform="translate(80.825737 142.976262)scale(0.16 -0.16)">
     <use xlink:href="#ArialMT-40"/>
     <use x="33.300781" xlink:href="#ArialMT-99"/>
     <use x="83.300781" xlink:href="#ArialMT-41"/>
    </g>
   </g>
  </g>
  <g id="axes_4">
   <g id="patch_17">
    <path d="M 235.249119 220.09125 
L 325.972635 220.09125 
L 325.972635 129.367734 
L 235.249119 129.367734 
z
" style="fill:#eaeaf2;"/>
   </g>
   <g id="matplotlib.axis_7">
    <g id="xtick_10">
     <g id="line2d_52">
      <path clip-path="url(#pc7fa776f3d)" d="M 235.249119 220.09125 
L 235.249119 129.367734 
" style="fill:none;stroke:#ffffff;stroke-linecap:round;"/>
     </g>
     <g id="line2d_53"/>
     <g id="text_20">
      <!-- 0 -->
      <g style="fill:#262626;" transform="translate(232.468651 234.249063)scale(0.1 -0.1)">
       <use xlink:href="#ArialMT-48"/>
      </g>
     </g>
    </g>
    <g id="xtick_11">
     <g id="line2d_54">
      <path clip-path="url(#pc7fa776f3d)" d="M 280.610877 220.09125 
L 280.610877 129.367734 
" style="fill:none;stroke:#ffffff;stroke-linecap:round;"/>
     </g>
     <g id="line2d_55"/>
     <g id="text_21">
      <!-- 5 -->
      <g style="fill:#262626;" transform="translate(277.830408 234.249063)scale(0.1 -0.1)">
       <use xlink:href="#ArialMT-53"/>
      </g>
     </g>
    </g>
    <g id="xtick_12">
     <g id="line2d_56">
      <path clip-path="url(#pc7fa776f3d)" d="M 325.972635 220.09125 
L 325.972635 129.367734 
" style="fill:none;stroke:#ffffff;stroke-linecap:round;"/>
     </g>
     <g id="line2d_57"/>
     <g id="text_22">
      <!-- 10 -->
      <g style="fill:#262626;" transform="translate(320.411697 234.249063)scale(0.1 -0.1)">
       <use xlink:href="#ArialMT-49"/>
       <use x="55.615234" xlink:href="#ArialMT-48"/>
      </g>
     </g>
    </g>
    <g id="text_23">
     <!-- x -->
     <g style="fill:#262626;" transform="translate(277.110877 250.2575)scale(0.14 -0.14)">
      <use xlink:href="#ArialMT-120"/>
     </g>
    </g>
   </g>
   <g id="matplotlib.axis_8">
    <g id="ytick_16">
     <g id="line2d_58">
      <path clip-path="url(#pc7fa776f3d)" d="M 235.249119 220.09125 
L 325.972635 220.09125 
" style="fill:none;stroke:#ffffff;stroke-linecap:round;"/>
     </g>
     <g id="line2d_59"/>
    </g>
    <g id="ytick_17">
     <g id="line2d_60">
      <path clip-path="url(#pc7fa776f3d)" d="M 235.249119 197.410371 
L 325.972635 197.410371 
" style="fill:none;stroke:#ffffff;stroke-linecap:round;"/>
     </g>
     <g id="line2d_61"/>
    </g>
    <g id="ytick_18">
     <g id="line2d_62">
      <path clip-path="url(#pc7fa776f3d)" d="M 235.249119 174.729492 
L 325.972635 174.729492 
" style="fill:none;stroke:#ffffff;stroke-linecap:round;"/>
     </g>
     <g id="line2d_63"/>
    </g>
    <g id="ytick_19">
     <g id="line2d_64">
      <path clip-path="url(#pc7fa776f3d)" d="M 235.249119 152.048613 
L 325.972635 152.048613 
" style="fill:none;stroke:#ffffff;stroke-linecap:round;"/>
     </g>
     <g id="line2d_65"/>
    </g>
    <g id="ytick_20">
     <g id="line2d_66">
      <path clip-path="url(#pc7fa776f3d)" d="M 235.249119 129.367734 
L 325.972635 129.367734 
" style="fill:none;stroke:#ffffff;stroke-linecap:round;"/>
     </g>
     <g id="line2d_67"/>
    </g>
   </g>
   <g id="line2d_68">
    <g clip-path="url(#pc7fa776f3d)">
     <use style="fill:#4c72b0;" x="281.691934" xlink:href="#m7b77137a3b" y="181.894942"/>
     <use style="fill:#4c72b0;" x="276.013459" xlink:href="#m7b77137a3b" y="164.935581"/>
     <use style="fill:#4c72b0;" x="276.894718" xlink:href="#m7b77137a3b" y="173.177597"/>
     <use style="fill:#4c72b0;" x="251.391627" xlink:href="#m7b77137a3b" y="182.616053"/>
     <use style="fill:#4c72b0;" x="277.746674" xlink:href="#m7b77137a3b" y="181.036195"/>
     <use style="fill:#4c72b0;" x="289.344972" xlink:href="#m7b77137a3b" y="174.808861"/>
     <use style="fill:#4c72b0;" x="279.636979" xlink:href="#m7b77137a3b" y="175.489468"/>
     <use style="fill:#4c72b0;" x="268.255959" xlink:href="#m7b77137a3b" y="175.004727"/>
     <use style="fill:#4c72b0;" x="297.462302" xlink:href="#m7b77137a3b" y="168.879169"/>
     <use style="fill:#4c72b0;" x="276.233732" xlink:href="#m7b77137a3b" y="180.833648"/>
     <use style="fill:#4c72b0;" x="292.727902" xlink:href="#m7b77137a3b" y="180.676144"/>
     <use style="fill:#4c72b0;" x="278.364224" xlink:href="#m7b77137a3b" y="182.300076"/>
     <use style="fill:#4c72b0;" x="293.865145" xlink:href="#m7b77137a3b" y="169.059152"/>
     <use style="fill:#4c72b0;" x="278.867683" xlink:href="#m7b77137a3b" y="162.498936"/>
     <use style="fill:#4c72b0;" x="290.729236" xlink:href="#m7b77137a3b" y="172.084958"/>
     <use style="fill:#4c72b0;" x="254.909261" xlink:href="#m7b77137a3b" y="170.581485"/>
     <use style="fill:#4c72b0;" x="275.963746" xlink:href="#m7b77137a3b" y="167.472189"/>
     <use style="fill:#4c72b0;" x="262.22428" xlink:href="#m7b77137a3b" y="176.188665"/>
     <use style="fill:#4c72b0;" x="271.543642" xlink:href="#m7b77137a3b" y="175.616469"/>
     <use style="fill:#4c72b0;" x="285.027787" xlink:href="#m7b77137a3b" y="185.624018"/>
     <use style="fill:#4c72b0;" x="283.642185" xlink:href="#m7b77137a3b" y="176.451555"/>
     <use style="fill:#4c72b0;" x="288.117479" xlink:href="#m7b77137a3b" y="171.985745"/>
     <use style="fill:#4c72b0;" x="269.890803" xlink:href="#m7b77137a3b" y="169.840024"/>
     <use style="fill:#4c72b0;" x="279.096637" xlink:href="#m7b77137a3b" y="181.042038"/>
     <use style="fill:#4c72b0;" x="272.927371" xlink:href="#m7b77137a3b" y="175.820252"/>
     <use style="fill:#4c72b0;" x="271.277602" xlink:href="#m7b77137a3b" y="176.440826"/>
     <use style="fill:#4c72b0;" x="286.696812" xlink:href="#m7b77137a3b" y="180.495312"/>
     <use style="fill:#4c72b0;" x="276.541615" xlink:href="#m7b77137a3b" y="179.469851"/>
     <use style="fill:#4c72b0;" x="295.605227" xlink:href="#m7b77137a3b" y="178.088135"/>
     <use style="fill:#4c72b0;" x="260.006086" xlink:href="#m7b77137a3b" y="180.355311"/>
     <use style="fill:#4c72b0;" x="295.05563" xlink:href="#m7b77137a3b" y="182.419263"/>
     <use style="fill:#4c72b0;" x="261.052084" xlink:href="#m7b77137a3b" y="170.003266"/>
     <use style="fill:#4c72b0;" x="279.964677" xlink:href="#m7b77137a3b" y="177.517602"/>
     <use style="fill:#4c72b0;" x="276.725766" xlink:href="#m7b77137a3b" y="172.044435"/>
     <use style="fill:#4c72b0;" x="300.174799" xlink:href="#m7b77137a3b" y="193.867525"/>
     <use style="fill:#4c72b0;" x="262.212652" xlink:href="#m7b77137a3b" y="174.396839"/>
     <use style="fill:#4c72b0;" x="269.762144" xlink:href="#m7b77137a3b" y="181.903659"/>
     <use style="fill:#4c72b0;" x="299.481527" xlink:href="#m7b77137a3b" y="153.188028"/>
     <use style="fill:#4c72b0;" x="269.79524" xlink:href="#m7b77137a3b" y="185.358955"/>
     <use style="fill:#4c72b0;" x="307.68016" xlink:href="#m7b77137a3b" y="178.281801"/>
     <use style="fill:#4c72b0;" x="264.778812" xlink:href="#m7b77137a3b" y="174.325748"/>
     <use style="fill:#4c72b0;" x="275.27538" xlink:href="#m7b77137a3b" y="176.397345"/>
     <use style="fill:#4c72b0;" x="252.656688" xlink:href="#m7b77137a3b" y="181.756082"/>
     <use style="fill:#4c72b0;" x="289.780334" xlink:href="#m7b77137a3b" y="171.721283"/>
     <use style="fill:#4c72b0;" x="304.677902" xlink:href="#m7b77137a3b" y="173.908295"/>
     <use style="fill:#4c72b0;" x="276.773834" xlink:href="#m7b77137a3b" y="165.803587"/>
     <use style="fill:#4c72b0;" x="288.943535" xlink:href="#m7b77137a3b" y="164.404575"/>
     <use style="fill:#4c72b0;" x="271.821416" xlink:href="#m7b77137a3b" y="173.438789"/>
     <use style="fill:#4c72b0;" x="277.120577" xlink:href="#m7b77137a3b" y="165.678649"/>
     <use style="fill:#4c72b0;" x="273.659159" xlink:href="#m7b77137a3b" y="180.318916"/>
    </g>
   </g>
   <g id="patch_18">
    <path d="M 235.249119 220.09125 
L 235.249119 129.367734 
" style="fill:none;"/>
   </g>
   <g id="patch_19">
    <path d="M 325.972635 220.09125 
L 325.972635 129.367734 
" style="fill:none;"/>
   </g>
   <g id="patch_20">
    <path d="M 235.249119 220.09125 
L 325.972635 220.09125 
" style="fill:none;"/>
   </g>
   <g id="patch_21">
    <path d="M 235.249119 129.367734 
L 325.972635 129.367734 
" style="fill:none;"/>
   </g>
   <g id="text_24">
    <!-- (d) -->
    <defs>
     <path d="M 40.234375 0 
L 40.234375 6.546875 
Q 35.296875 -1.171875 25.734375 -1.171875 
Q 19.53125 -1.171875 14.328125 2.25 
Q 9.125 5.671875 6.265625 11.796875 
Q 3.421875 17.921875 3.421875 25.875 
Q 3.421875 33.640625 6 39.96875 
Q 8.59375 46.296875 13.765625 49.65625 
Q 18.953125 53.03125 25.34375 53.03125 
Q 30.03125 53.03125 33.6875 51.046875 
Q 37.359375 49.078125 39.65625 45.90625 
L 39.65625 71.578125 
L 48.390625 71.578125 
L 48.390625 0 
z
M 12.453125 25.875 
Q 12.453125 15.921875 16.640625 10.984375 
Q 20.84375 6.0625 26.5625 6.0625 
Q 32.328125 6.0625 36.34375 10.765625 
Q 40.375 15.484375 40.375 25.140625 
Q 40.375 35.796875 36.265625 40.765625 
Q 32.171875 45.75 26.171875 45.75 
Q 20.3125 45.75 16.375 40.96875 
Q 12.453125 36.1875 12.453125 25.875 
z
" id="ArialMT-100"/>
    </defs>
    <g style="fill:#262626;" transform="translate(237.517207 142.976262)scale(0.16 -0.16)">
     <use xlink:href="#ArialMT-40"/>
     <use x="33.300781" xlink:href="#ArialMT-100"/>
     <use x="88.916016" xlink:href="#ArialMT-41"/>
    </g>
   </g>
  </g>
 </g>
 <defs>
  <clipPath id="p3fc8197e6b">
   <rect height="90.723516" width="90.723516" x="78.557649" y="16.538906"/>
  </clipPath>
  <clipPath id="p4d4f606b7c">
   <rect height="90.723516" width="90.723516" x="235.249119" y="16.538906"/>
  </clipPath>
  <clipPath id="p30789ed4a4">
   <rect height="90.723516" width="90.723516" x="78.557649" y="129.367734"/>
  </clipPath>
  <clipPath id="pc7fa776f3d">
   <rect height="90.723516" width="90.723516" x="235.249119" y="129.367734"/>
  </clipPath>
 </defs>
</svg>
